<?xml version="1.0" standalone="no"?>
<!DOCTYPE svg PUBLIC "-//W3C//DTD SVG 20010904//EN"
 "http://www.w3.org/TR/2001/REC-SVG-20010904/DTD/svg10.dtd">
<svg version="1.0" xmlns="http://www.w3.org/2000/svg"
 width="1280.000000pt" height="1147.000000pt" viewBox="0 0 1280.000000 1147.000000"
 preserveAspectRatio="xMidYMid meet">
<metadata>
Created by potrace 1.15, written by Peter Selinger 2001-2017
</metadata>
<g transform="translate(0.000000,1147.000000) scale(0.100000,-0.100000)"
fill="#000000" stroke="none">
<path d="M1703 11456 c-128 -31 -242 -119 -291 -223 l-27 -58 -3 -969 c-3
-1050 -3 -1037 51 -1123 34 -53 106 -117 166 -147 104 -53 301 -72 442 -42
137 29 257 117 308 226 l26 55 0 1000 0 1000 -32 65 c-17 36 -47 79 -65 97
-54 52 -145 101 -218 117 -83 19 -282 20 -357 2z"/>
<path d="M4750 11463 c-133 -22 -261 -110 -318 -218 l-27 -50 -3 -1002 -2
-1001 21 -59 c16 -41 39 -74 78 -114 104 -104 234 -144 431 -136 188 8 307 60
392 172 71 93 68 40 68 1126 0 965 0 979 -21 1034 -42 114 -179 219 -318 245
-52 10 -250 12 -301 3z"/>
<path d="M7740 11460 c-124 -26 -247 -119 -301 -227 l-24 -48 -3 -992 c-2
-979 -2 -992 18 -1046 62 -165 211 -255 440 -264 253 -11 428 74 508 245 l27
57 0 985 c0 914 -1 989 -18 1035 -35 100 -135 195 -249 235 -52 19 -88 23
-208 26 -80 1 -165 -1 -190 -6z"/>
<path d="M10743 11456 c-129 -32 -241 -117 -291 -224 l-27 -57 0 -1000 0
-1000 28 -56 c32 -67 113 -147 185 -183 150 -76 417 -74 570 3 72 37 145 110
180 181 l27 55 0 1000 0 1000 -32 65 c-17 36 -47 79 -65 97 -54 52 -145 101
-218 117 -83 19 -282 20 -357 2z"/>
<path d="M380 9909 c-178 -23 -334 -168 -370 -344 -7 -34 -9 -1513 -8 -4640
l3 -4590 37 -77 c48 -102 114 -168 216 -216 l77 -37 6030 -3 c4584 -2 6043 0
6085 9 164 35 292 158 336 324 11 41 14 836 14 4620 0 4099 -2 4577 -16 4630
-46 178 -193 303 -384 326 -48 5 -241 9 -445 7 l-360 -3 -5 -425 -5 -425 -25
-48 c-54 -107 -199 -207 -359 -248 -99 -26 -332 -36 -460 -20 -220 27 -386
120 -470 261 l-26 45 -5 430 -5 430 -825 0 -825 0 -5 -425 c-6 -493 -2 -473
-113 -577 -119 -111 -263 -160 -497 -170 -308 -12 -509 46 -648 188 -23 24
-52 64 -65 89 -21 44 -22 55 -27 470 l-5 425 -825 0 -825 0 -5 -425 c-5 -415
-6 -426 -28 -471 -12 -25 -43 -67 -70 -93 -138 -138 -337 -195 -642 -183 -235
10 -377 59 -497 170 -111 104 -107 84 -113 577 l-5 425 -825 0 -825 0 -5 -430
-5 -430 -27 -45 c-84 -144 -255 -237 -480 -261 -135 -15 -350 -5 -449 20 -160
41 -305 141 -359 248 l-25 48 -5 425 -5 425 -380 1 c-209 1 -409 -2 -445 -7z
m11402 -2030 c113 -24 201 -90 244 -183 l24 -51 0 -3401 c0 -2552 -3 -3410
-12 -3435 -31 -92 -114 -167 -220 -201 -58 -17 -235 -18 -5418 -18 -5183 0
-5360 1 -5418 18 -106 34 -189 109 -220 201 -9 25 -12 883 -12 3435 l0 3401
24 51 c42 90 122 153 231 180 69 17 10696 20 10777 3z"/>
<path d="M4625 7658 c-3 -7 -4 -292 -3 -633 l3 -620 838 -3 837 -2 0 635 0
635 -835 0 c-659 0 -837 -3 -840 -12z"/>
<path d="M6430 7035 l0 -635 838 2 837 3 0 630 0 630 -837 3 -838 2 0 -635z"/>
<path d="M8240 7035 l0 -635 835 0 835 0 0 635 0 635 -835 0 -835 0 0 -635z"/>
<path d="M10040 7035 l0 -635 840 0 840 0 -2 633 -3 632 -837 3 -838 2 0 -635z"/>
<path d="M1010 5640 l0 -630 840 0 840 0 0 630 0 630 -840 0 -840 0 0 -630z"/>
<path d="M2820 5640 l0 -630 835 0 835 0 0 630 0 630 -835 0 -835 0 0 -630z"/>
<path d="M4620 5640 l0 -630 840 0 840 0 0 630 0 630 -840 0 -840 0 0 -630z"/>
<path d="M6430 5640 l0 -630 840 0 840 0 0 630 0 630 -840 0 -840 0 0 -630z"/>
<path d="M8240 5640 l0 -630 835 0 835 0 0 630 0 630 -835 0 -835 0 0 -630z"/>
<path d="M10040 5640 l0 -630 840 0 840 0 0 630 0 630 -840 0 -840 0 0 -630z"/>
<path d="M1010 4260 l0 -630 840 0 840 0 0 630 0 630 -840 0 -840 0 0 -630z"/>
<path d="M2820 4260 l0 -630 835 0 835 0 0 630 0 630 -835 0 -835 0 0 -630z"/>
<path d="M4620 4260 l0 -630 840 0 840 0 0 630 0 630 -840 0 -840 0 0 -630z"/>
<path d="M6430 4260 l0 -630 840 0 840 0 0 630 0 630 -840 0 -840 0 0 -630z"/>
<path d="M8240 4260 l0 -630 835 0 835 0 0 630 0 630 -835 0 -835 0 0 -630z"/>
<path d="M10040 4260 l0 -630 840 0 840 0 0 630 0 630 -840 0 -840 0 0 -630z"/>
<path d="M1014 3511 c-2 -2 -4 -287 -4 -633 l0 -628 840 0 840 0 -2 630 -3
630 -833 3 c-459 1 -836 0 -838 -2z"/>
<path d="M3653 3513 l-833 -3 0 -630 0 -630 835 0 835 0 0 635 c0 349 -1 634
-2 633 -2 -2 -378 -4 -835 -5z"/>
<path d="M4624 3511 c-2 -2 -4 -287 -4 -633 l0 -628 840 0 840 0 0 630 0 630
-836 2 c-460 2 -838 1 -840 -1z"/>
<path d="M7263 3512 l-833 -2 0 -630 0 -630 840 0 840 0 0 629 c0 347 -3 631
-7 633 -5 2 -383 2 -840 0z"/>
<path d="M10873 3512 l-833 -2 0 -630 0 -630 840 0 840 0 0 629 c0 347 -3 631
-7 633 -5 2 -383 2 -840 0z"/>
<path d="M8240 2880 l0 -630 835 0 835 0 0 630 0 630 -835 0 -835 0 0 -630z"/>
<path d="M1012 1488 l3 -633 835 0 835 0 3 633 2 632 -840 0 -840 0 2 -632z"/>
<path d="M2820 1485 l0 -635 835 0 835 0 0 635 0 635 -835 0 -835 0 0 -635z"/>
<path d="M4622 1488 l3 -633 838 -3 837 -2 0 635 0 635 -840 0 -840 0 2 -632z"/>
<path d="M6432 1488 l3 -633 835 0 835 0 3 633 2 632 -840 0 -840 0 2 -632z"/>
<path d="M8240 1485 l0 -635 835 0 835 0 0 635 0 635 -835 0 -835 0 0 -635z"/>
</g>
</svg>
