<?xml version="1.0" standalone="no"?>
<!DOCTYPE svg PUBLIC "-//W3C//DTD SVG 20010904//EN"
 "http://www.w3.org/TR/2001/REC-SVG-20010904/DTD/svg10.dtd">
<svg version="1.0" xmlns="http://www.w3.org/2000/svg"
 width="1188.000000pt" height="1280.000000pt" viewBox="0 0 1188.000000 1280.000000"
 preserveAspectRatio="xMidYMid meet">
<metadata>
Created by potrace 1.15, written by Peter Selinger 2001-2017
</metadata>
<g transform="translate(0.000000,1280.000000) scale(0.100000,-0.100000)"
fill="#000000" stroke="none">
<path d="M2570 12297 c-90 -25 -163 -88 -204 -176 -21 -46 -21 -50 -21 -1046
l0 -1000 26 -55 c31 -66 85 -121 148 -152 44 -22 56 -23 311 -23 l265 0 51 27
c52 28 112 86 137 135 36 69 38 128 35 1104 l-3 956 -35 69 c-38 73 -103 133
-170 156 -51 17 -482 21 -540 5z"/>
<path d="M5627 12299 c-93 -22 -179 -96 -213 -185 -18 -47 -19 -89 -19 -1049
l0 -1000 25 -49 c36 -71 100 -131 167 -156 54 -20 72 -21 308 -18 249 3 250 3
300 30 65 34 108 80 139 148 l26 55 -1 995 c0 812 -2 1002 -13 1033 -34 94
-120 171 -218 195 -55 14 -444 15 -501 1z"/>
<path d="M8699 12296 c-95 -27 -176 -106 -211 -205 -10 -28 -13 -246 -13
-1016 0 -919 1 -983 18 -1032 23 -66 85 -136 151 -171 l51 -27 265 0 c256 0
267 1 311 23 64 31 117 85 148 151 l26 56 0 1000 0 1000 -28 57 c-32 65 -89
121 -156 152 -42 19 -64 21 -281 23 -169 1 -248 -2 -281 -11z"/>
<path d="M1665 11400 c-472 -37 -891 -329 -1106 -771 -54 -111 -90 -239 -109
-389 -6 -45 -10 -796 -11 -1865 -1 -984 -4 -1774 -6 -1755 -9 99 -16 144 -20
132 -3 -6 -9 -9 -15 -6 -5 3 -12 -3 -15 -15 -6 -25 -23 -28 -23 -4 0 10 -3 13
-9 8 -8 -9 -13 -65 -26 -315 -3 -52 -8 -113 -11 -135 -15 -95 -31 -418 -31
-625 0 -221 2 -261 32 -550 9 -80 17 -186 19 -236 1 -50 6 -96 10 -102 9 -15
43 -16 51 -2 4 6 10 8 15 5 11 -7 20 19 22 68 2 23 5 -691 8 -1588 5 -1491 7
-1636 23 -1700 120 -491 462 -861 937 -1010 184 -59 -116 -55 4485 -55 4104 0
4223 1 4335 19 506 84 925 461 1070 962 35 125 37 134 48 304 5 72 10 1944 11
4160 2 3839 1 4170 -24 4371 -13 106 -138 416 -191 475 -8 8 -14 19 -14 23 0
15 -117 153 -188 224 -96 94 -202 168 -338 235 -225 112 -345 136 -723 144
l-283 6 3 -714 c4 -798 6 -772 -67 -880 -48 -73 -85 -104 -174 -147 l-75 -37
-355 0 -355 0 -67 32 c-94 44 -167 116 -209 206 l-34 72 -3 733 -3 732 -844 0
-845 0 0 -712 c0 -392 -4 -730 -9 -751 -27 -114 -121 -225 -239 -280 l-67 -32
-355 0 -355 0 -70 33 c-90 42 -174 124 -212 206 l-28 61 -5 735 -5 735 -842 3
-842 2 -3 -727 -3 -728 -23 -58 c-32 -78 -92 -151 -162 -196 -98 -64 -116 -66
-490 -66 -297 0 -341 2 -387 18 -113 39 -212 138 -256 254 -22 57 -22 65 -25
781 l-3 722 -212 -2 c-116 -1 -252 -4 -302 -8z"/>
</g>
</svg>
