<?xml version="1.0" standalone="no"?>
<!DOCTYPE svg PUBLIC "-//W3C//DTD SVG 20010904//EN"
 "http://www.w3.org/TR/2001/REC-SVG-20010904/DTD/svg10.dtd">
<svg version="1.0" xmlns="http://www.w3.org/2000/svg"
 width="863.000000pt" height="1280.000000pt" viewBox="0 0 863.000000 1280.000000"
 preserveAspectRatio="xMidYMid meet">
<metadata>
Created by potrace 1.15, written by Peter Selinger 2001-2017
</metadata>
<g transform="translate(0.000000,1280.000000) scale(0.100000,-0.100000)"
fill="#12b07e" stroke="none">
<path d="M3349 11509 c-365 -4 -675 -12 -730 -18 -137 -17 -242 -46 -344 -96
-163 -79 -274 -190 -350 -350 -84 -176 -94 -265 -95 -790 -1 -327 -3 -393 -15
-409 -22 -29 -22 -643 0 -672 21 -28 21 -380 0 -408 -22 -29 -22 -641 0 -673
13 -18 15 -398 18 -3109 l2 -3089 23 -85 c67 -249 220 -427 452 -525 35 -15
111 -40 169 -55 58 -16 97 -29 86 -29 -15 -1 -16 -4 -7 -13 10 -10 376 -13
1760 -13 961 0 1760 4 1776 8 19 5 26 11 18 16 -7 4 29 17 81 29 341 83 541
265 629 577 l23 80 3 3141 c2 2767 4 3143 17 3154 22 18 22 671 0 690 -12 10
-15 145 -17 963 l-3 952 -27 95 c-33 121 -67 197 -123 275 -133 187 -346 301
-627 335 -47 6 -437 15 -865 20 -840 10 -901 10 -1854 -1z m3306 -5189 l0
-4115 -2320 0 -2320 0 -3 4109 c-2 3281 0 4111 10 4118 7 4 1053 7 2323 5
l2310 -2 0 -4115z"/>
</g>
</svg>
