<?xml version="1.0" standalone="no"?>
<!DOCTYPE svg PUBLIC "-//W3C//DTD SVG 20010904//EN"
 "http://www.w3.org/TR/2001/REC-SVG-20010904/DTD/svg10.dtd">
<svg version="1.0" xmlns="http://www.w3.org/2000/svg"
 width="1202.000000pt" height="1280.000000pt" viewBox="0 0 1202.000000 1280.000000"
 preserveAspectRatio="xMidYMid meet">
<metadata>
Created by potrace 1.15, written by Peter Selinger 2001-2017
</metadata>
<g transform="translate(0.000000,1280.000000) scale(0.100000,-0.100000)"
fill="#08b07e" stroke="none">
<path d="M10758 12679 c-47 -68 -185 -270 -306 -447 -122 -178 -222 -328 -222
-333 0 -5 -11 -9 -25 -9 -14 0 -39 -13 -57 -29 -30 -26 -33 -35 -33 -84 0 -63
35 -5 -443 -715 l-285 -424 -57 339 c-67 395 -77 438 -126 535 -42 83 -75 130
-150 208 -29 30 -54 66 -56 80 -2 21 -9 25 -38 26 -19 1 -69 17 -110 37 -110
51 -197 70 -320 70 -102 0 -207 -16 -995 -153 -103 -18 -263 -45 -910 -155
-143 -24 -381 -65 -530 -90 -325 -55 -656 -112 -937 -160 -115 -19 -301 -51
-415 -70 -444 -76 -679 -116 -968 -165 -165 -28 -376 -64 -470 -80 -93 -16
-289 -50 -435 -74 -146 -25 -359 -61 -475 -81 -253 -43 -595 -101 -880 -150
-291 -49 -363 -72 -482 -153 -204 -139 -333 -378 -333 -618 0 -67 78 -587 94
-631 6 -15 -5 -18 -343 -73 -338 -56 -368 -67 -416 -145 -27 -43 -30 -57 -30
-124 0 -89 23 -148 77 -202 66 -66 80 -66 406 -9 159 27 302 49 318 49 17 -1
22 -3 12 -6 -22 -5 -22 -5 -4 -48 12 -27 21 -34 48 -37 l33 -3 47 -275 c26
-151 50 -296 54 -321 l6 -47 -48 -10 c-27 -6 -164 -29 -304 -52 -294 -48 -343
-65 -387 -131 -23 -36 -29 -55 -32 -121 -3 -73 -1 -85 29 -144 38 -77 99 -124
161 -124 21 0 154 20 296 45 223 39 344 54 307 39 -7 -3 -7 -18 0 -49 10 -42
13 -45 43 -45 17 0 34 -3 36 -7 8 -14 91 -522 86 -527 -2 -3 -140 -27 -307
-55 -322 -54 -362 -66 -405 -123 -73 -98 -57 -258 33 -348 64 -64 89 -65 377
-14 224 39 387 62 340 48 -14 -5 -17 -14 -14 -44 5 -50 22 -70 58 -70 16 0 29
-3 29 -7 0 -5 22 -136 49 -291 32 -192 44 -285 37 -288 -6 -2 -143 -26 -305
-53 -265 -44 -297 -52 -335 -77 -94 -66 -118 -196 -57 -319 37 -74 84 -113
148 -122 22 -3 145 14 298 41 144 25 272 45 285 45 17 -1 20 -3 7 -6 -22 -6
-23 -50 -1 -81 9 -14 26 -22 44 -22 32 0 24 32 94 -377 29 -176 31 -193 16
-198 -9 -3 -137 -25 -284 -50 -285 -48 -327 -61 -369 -117 -72 -98 -57 -258
33 -348 64 -64 84 -65 378 -14 141 24 265 44 275 44 12 0 17 -8 17 -25 0 -54
30 -101 62 -96 8 1 11 -12 48 -234 16 -99 32 -190 35 -201 5 -24 -5 -27 -355
-85 -101 -16 -199 -37 -217 -46 -142 -67 -159 -290 -31 -409 64 -61 76 -62
349 -15 134 23 254 44 267 47 19 4 22 0 22 -26 0 -59 29 -106 62 -101 4 0 10
-9 13 -22 8 -35 85 -492 85 -504 0 -16 -9 -18 -250 -58 -252 -42 -270 -47
-317 -88 -101 -89 -98 -260 6 -368 67 -69 82 -70 346 -26 121 21 227 37 236
37 12 0 15 -7 12 -23 -3 -13 2 -40 11 -60 12 -29 21 -37 40 -37 15 0 26 -4 26
-9 0 -14 78 -468 91 -531 6 -30 25 -91 42 -135 31 -78 33 -86 36 -113 0 -7 5
-11 10 -7 5 3 13 0 17 -6 4 -8 3 -9 -4 -5 -18 11 -14 -10 9 -57 12 -23 56 -76
99 -118 61 -61 97 -86 171 -123 142 -69 196 -81 379 -80 147 0 181 5 635 82
742 126 1497 257 1655 287 41 8 91 17 110 20 45 8 515 104 730 149 91 19 152
36 135 37 -25 1 -23 3 15 10 25 5 55 8 67 6 13 -3 20 0 16 6 -4 6 9 8 37 4 24
-3 38 -2 31 2 -8 5 16 13 61 20 40 6 123 20 183 30 120 21 442 77 820 141 132
22 346 59 475 81 129 22 340 58 468 79 428 73 700 120 935 160 127 21 354 60
502 85 316 53 386 68 457 96 161 63 316 206 393 362 55 112 75 185 82 297 6
92 -1 143 -66 525 -22 127 -63 365 -91 530 -28 165 -69 405 -90 533 -90 527
-121 710 -165 967 -43 254 -66 391 -164 965 -22 129 -61 357 -86 505 -47 275
-97 568 -159 935 -37 216 -142 832 -205 1208 l-38 223 121 187 c67 103 366
557 665 1009 l542 822 62 34 c76 41 90 66 88 160 l-1 70 310 474 c171 260 310
482 310 492 0 30 -102 222 -152 288 -146 188 -344 275 -679 299 l-96 7 -85
-124z m-4611 -11495 c-3 -3 -12 -4 -19 -1 -8 3 -5 6 6 6 11 1 17 -2 13 -5z
m-50 -10 c-3 -3 -12 -4 -19 -1 -8 3 -5 6 6 6 11 1 17 -2 13 -5z m-70 -10 c-3
-3 -12 -4 -19 -1 -8 3 -5 6 6 6 11 1 17 -2 13 -5z"/>
<path d="M6238 1193 c7 -3 16 -2 19 1 4 3 -2 6 -13 5 -11 0 -14 -3 -6 -6z"/>
</g>
</svg>
