<?xml version="1.0" standalone="no"?>
<!DOCTYPE svg PUBLIC "-//W3C//DTD SVG 20010904//EN"
 "http://www.w3.org/TR/2001/REC-SVG-20010904/DTD/svg10.dtd">
<svg version="1.0" xmlns="http://www.w3.org/2000/svg"
 width="1280.000000pt" height="1062.000000pt" viewBox="0 0 1280.000000 1062.000000"
 preserveAspectRatio="xMidYMid meet">
<metadata>
Created by potrace 1.15, written by Peter Selinger 2001-2017
</metadata>
<g transform="translate(0.000000,1062.000000) scale(0.100000,-0.100000)"
fill="#12b07e" stroke="none">
<path d="M2965 10614 c-16 -2 -82 -9 -145 -15 -162 -16 -437 -72 -603 -124
-373 -115 -709 -290 -1017 -529 -130 -100 -412 -379 -512 -506 -442 -559 -661
-1156 -685 -1865 -11 -337 33 -655 134 -970 74 -232 157 -410 356 -770 268
-484 332 -589 782 -1280 497 -764 667 -1048 932 -1558 239 -460 420 -882 573
-1332 136 -399 220 -712 340 -1275 40 -184 73 -336 75 -338 3 -4 12 37 100
453 135 637 255 1051 450 1546 306 779 648 1404 1380 2524 508 777 589 914
839 1415 239 481 303 651 360 970 36 201 46 322 46 539 0 596 -150 1123 -462
1626 -215 345 -518 669 -843 901 -409 291 -922 491 -1445 563 -182 26 -529 39
-655 25z"/>
</g>
</svg>
