<?xml version="1.0" standalone="no"?>
<!DOCTYPE svg PUBLIC "-//W3C//DTD SVG 20010904//EN"
 "http://www.w3.org/TR/2001/REC-SVG-20010904/DTD/svg10.dtd">
<svg version="1.0" xmlns="http://www.w3.org/2000/svg"
 width="1280.000000pt" height="640.000000pt" viewBox="0 0 1280.000000 640.000000"
 preserveAspectRatio="xMidYMid meet">
<metadata>
Created by potrace 1.15, written by Peter Selinger 2001-2017
</metadata>
<g transform="translate(0.000000,640.000000) scale(0.100000,-0.100000)"
fill="#000000" stroke="none">
<path d="M6240 5979 c-453 -44 -885 -287 -1161 -654 -170 -226 -272 -474 -315
-769 -21 -142 -14 -395 15 -538 63 -311 212 -595 430 -821 326 -338 726 -509
1191 -509 465 0 865 171 1191 509 176 183 299 387 379 631 60 187 75 286 75
512 -1 206 -11 289 -59 455 -168 581 -652 1031 -1243 1154 -180 38 -330 47
-503 30z"/>
<path d="M2295 4779 c-102 -10 -231 -41 -328 -79 -365 -140 -651 -443 -771
-815 -80 -250 -80 -542 1 -790 92 -281 270 -517 515 -683 130 -89 332 -168
499 -197 118 -21 320 -21 438 0 536 93 960 514 1056 1051 21 115 21 332 1 446
-104 580 -567 1008 -1155 1067 -114 12 -140 12 -256 0z"/>
<path d="M10235 4779 c-146 -15 -322 -67 -453 -133 -101 -51 -240 -153 -327
-241 -366 -365 -477 -908 -287 -1394 163 -414 540 -719 983 -796 118 -21 320
-21 438 0 166 29 370 109 501 198 440 298 656 832 546 1352 -18 86 -69 231
-106 306 -54 107 -155 245 -245 334 -215 216 -486 343 -794 374 -114 12 -140
12 -256 0z"/>
<path d="M5675 2573 c-22 -2 -92 -13 -155 -24 -796 -139 -1574 -758 -2000
-1594 -84 -164 -210 -483 -210 -532 0 -11 520 -13 3090 -13 2570 0 3090 2
3090 13 0 49 -126 368 -210 532 -352 689 -947 1240 -1610 1488 -123 46 -247
80 -390 108 -112 23 -131 23 -840 25 -399 0 -743 -1 -765 -3z"/>
<path d="M1820 2103 c-279 -47 -520 -135 -740 -270 -411 -253 -762 -655 -960
-1101 -39 -87 -120 -302 -120 -318 0 -2 702 -4 1560 -4 1240 0 1561 3 1564 12
2 7 20 67 41 133 121 388 351 806 616 1122 44 51 79 95 79 98 0 12 -151 101
-263 155 -146 70 -286 120 -428 151 -102 23 -114 24 -714 25 -335 1 -621 0
-635 -3z"/>
<path d="M9760 2104 c-223 -38 -366 -82 -546 -169 -122 -58 -274 -147 -274
-160 0 -4 26 -36 58 -73 298 -348 557 -836 678 -1279 3 -10 324 -13 1564 -13
858 0 1560 2 1560 4 0 2 -16 51 -36 108 -132 379 -353 723 -641 998 -297 284
-645 477 -1013 562 -92 21 -116 22 -710 24 -338 1 -626 0 -640 -2z"/>
</g>
</svg>
